<?xml version="1.0" encoding="utf-8"?>
<!-- Generator: Adobe Illustrator 16.0.0, SVG Export Plug-In . SVG Version: 6.00 Build 0)  -->
<!DOCTYPE svg PUBLIC "-//W3C//DTD SVG 1.1//EN" "http://www.w3.org/Graphics/SVG/1.1/DTD/svg11.dtd">
<svg version="1.1" id="Layer_1" xmlns="http://www.w3.org/2000/svg" xmlns:xlink="http://www.w3.org/1999/xlink" x="0px" y="0px"
	 width="300px" height="250px" viewBox="0 0 300 250" enable-background="new 0 0 300 250" xml:space="preserve">
<g>
	<g>
		<g>
			<circle stroke="#FFFFFF" stroke-miterlimit="10" cx="97.73" cy="19.698" r="18.957"/>
			<path stroke="#FFFFFF" stroke-miterlimit="10" d="M107.041,37.682c-2.751,1.554-5.927,2.445-9.312,2.445
				c-3.385,0-6.56-0.892-9.311-2.445C56.89,39.643,64.6,73.034,64.6,73.034c3.382,0.879,6.65,1.618,9.807,2.233l0.602-10.083
				l1.569,10.492c7.69,1.384,14.675,2.034,20.904,2.204v0.018c0.082-0.003,0.167-0.007,0.248-0.01
				c0.083,0.003,0.167,0.007,0.248,0.01V77.88c6.229-0.17,13.213-0.82,20.905-2.204l1.568-10.492l0.603,10.083
				c3.156-0.615,6.423-1.354,9.806-2.233C130.859,73.034,138.57,39.643,107.041,37.682z"/>
		</g>
		<g>
			<circle stroke="#FFFFFF" stroke-miterlimit="10" cx="202.271" cy="19.698" r="18.958"/>
			<path stroke="#FFFFFF" stroke-miterlimit="10" d="M211.583,37.682c-2.751,1.554-5.926,2.445-9.311,2.445
				c-3.384,0-6.561-0.892-9.312-2.445c-31.53,1.96-23.818,35.352-23.818,35.352c3.382,0.879,6.648,1.618,9.807,2.233l0.602-10.083
				l1.57,10.492c7.688,1.384,14.675,2.034,20.905,2.204v0.018c0.079-0.003,0.165-0.007,0.246-0.01
				c0.081,0.003,0.166,0.007,0.248,0.01V77.88c6.229-0.17,13.211-0.82,20.902-2.204l1.569-10.492l0.603,10.083
				c3.158-0.615,6.424-1.354,9.805-2.233C235.399,73.034,243.11,39.643,211.583,37.682z"/>
		</g>
	</g>
	<g>
		<g>
			<circle stroke="#FFFFFF" stroke-miterlimit="10" cx="257.681" cy="63.487" r="22.889"/>
			<path stroke="#FFFFFF" stroke-miterlimit="10" d="M268.925,85.201c-3.323,1.877-7.156,2.953-11.243,2.953
				c-4.085,0-7.921-1.076-11.242-2.953c-38.067,2.367-28.757,42.682-28.757,42.682c4.082,1.063,8.026,1.953,11.839,2.696
				l0.727-12.174l1.896,12.667c9.283,1.673,17.718,2.456,25.238,2.663v0.021c0.098-0.004,0.201-0.01,0.299-0.012
				c0.1,0.002,0.202,0.008,0.298,0.012v-0.021c7.521-0.207,15.952-0.99,25.239-2.663l1.896-12.667l0.727,12.174
				c3.813-0.743,7.757-1.633,11.838-2.696C297.679,127.883,306.989,87.568,268.925,85.201z"/>
		</g>
		<g>
			<circle stroke="#FFFFFF" stroke-miterlimit="10" cx="42.319" cy="63.487" r="22.888"/>
			<path stroke="#FFFFFF" stroke-miterlimit="10" d="M53.562,85.201c-3.322,1.877-7.155,2.953-11.243,2.953
				c-4.086,0-7.92-1.076-11.243-2.953c-38.065,2.367-28.755,42.682-28.755,42.682c4.083,1.063,8.027,1.953,11.839,2.696
				l0.727-12.174l1.895,12.667c9.285,1.673,17.717,2.456,25.239,2.663v0.021c0.098-0.004,0.201-0.01,0.298-0.012
				c0.1,0.002,0.2,0.008,0.299,0.012v-0.021c7.521-0.207,15.953-0.99,25.239-2.663l1.894-12.667l0.728,12.174
				c3.811-0.743,7.756-1.633,11.838-2.696C82.318,127.883,91.629,87.568,53.562,85.201z"/>
		</g>
	</g>
	<g>
		<circle stroke="#FFFFFF" stroke-width="2" stroke-miterlimit="10" cx="149.999" cy="32.818" r="25.885"/>
		<path stroke="#FFFFFF" stroke-width="2" stroke-miterlimit="10" d="M162.715,56.265c-3.758,2.123-8.091,3.339-12.715,3.339
			c-4.623,0-8.958-1.217-12.715-3.339c-43.049,2.678-32.519,48.266-32.519,48.266c4.616,1.208,9.077,2.212,13.388,3.052
			l0.822-13.766l2.144,14.325c10.5,1.892,20.037,2.778,28.542,3.011v0.022c0.111-0.003,0.227-0.007,0.338-0.013
			c0.111,0.006,0.228,0.01,0.337,0.013v-0.022c8.507-0.233,18.042-1.12,28.543-3.011l2.145-14.325l0.821,13.766
			c4.312-0.839,8.772-1.844,13.389-3.052C195.234,104.531,205.763,58.942,162.715,56.265z"/>
	</g>
	<g>
		<g>
			<circle stroke="#FFFFFF" stroke-width="2" stroke-miterlimit="10" cx="211.522" cy="88.831" r="34.342"/>
			<path stroke="#FFFFFF" stroke-miterlimit="10" d="M228.392,119.908c-4.983,2.817-10.734,4.432-16.866,4.432
				c-6.133,0-11.887-1.615-16.872-4.432c-57.115,3.554-43.146,64.041-43.146,64.041c6.125,1.6,12.043,2.933,17.763,4.048
				l1.092-18.265l2.845,19.004c13.93,2.511,26.583,3.687,37.867,3.997v0.031c0.147-0.006,0.303-0.014,0.451-0.018
				c0.146,0.004,0.3,0.012,0.447,0.018v-0.031c11.282-0.311,23.935-1.486,37.867-3.997l2.843-19.004l1.092,18.265
				c5.722-1.115,11.639-2.448,17.764-4.048C271.538,183.949,285.507,123.462,228.392,119.908z"/>
		</g>
		<g>
			<circle stroke="#FFFFFF" stroke-width="2" stroke-miterlimit="10" cx="88.478" cy="88.831" r="34.342"/>
			<path stroke="#FFFFFF" stroke-miterlimit="10" d="M105.347,119.908c-4.985,2.817-10.737,4.432-16.87,4.432
				c-6.132,0-11.883-1.615-16.868-4.432c-57.116,3.554-43.146,64.041-43.146,64.041c6.126,1.6,12.045,2.933,17.765,4.048
				l1.09-18.265l2.843,19.004c13.932,2.511,26.584,3.687,37.87,3.997v0.031c0.146-0.006,0.3-0.014,0.447-0.018
				c0.149,0.004,0.302,0.012,0.448,0.018v-0.031c11.285-0.311,23.938-1.486,37.87-3.997l2.843-19.004l1.092,18.265
				c5.718-1.115,11.637-2.448,17.763-4.048C148.493,183.949,162.463,123.462,105.347,119.908z"/>
		</g>
	</g>
	<g>
		<circle stroke="#FFFFFF" stroke-width="2" stroke-miterlimit="10" cx="150" cy="118.721" r="43.122"/>
		<path stroke="#FFFFFF" stroke-width="2" stroke-miterlimit="10" d="M171.183,157.779c-6.259,3.536-13.481,5.564-21.183,5.564
			s-14.924-2.028-21.182-5.564c-71.718,4.462-54.177,80.412-54.177,80.412c7.69,2.008,15.124,3.684,22.305,5.084l1.37-22.936
			l3.571,23.863c17.493,3.153,33.38,4.629,47.551,5.019v0.038c0.184-0.006,0.376-0.016,0.562-0.021
			c0.186,0.005,0.378,0.015,0.563,0.021v-0.038c14.169-0.39,30.056-1.865,47.551-5.019l3.57-23.863l1.369,22.936
			c7.183-1.4,14.614-3.076,22.307-5.084C225.36,238.191,242.899,162.241,171.183,157.779z"/>
	</g>
</g>
<g>
</g>
<g>
</g>
<g>
</g>
<g>
</g>
<g>
</g>
<g>
</g>
</svg>
