<?xml version="1.0" encoding="utf-8"?>
<!-- Generator: Adobe Illustrator 16.0.0, SVG Export Plug-In . SVG Version: 6.00 Build 0)  -->
<!DOCTYPE svg PUBLIC "-//W3C//DTD SVG 1.1//EN" "http://www.w3.org/Graphics/SVG/1.1/DTD/svg11.dtd">
<svg version="1.1" id="Layer_1" xmlns="http://www.w3.org/2000/svg" xmlns:xlink="http://www.w3.org/1999/xlink" x="0px" y="0px"
	 width="300px" height="230px" viewBox="0 0 300 230" enable-background="new 0 0 300 230" xml:space="preserve">
<path d="M299.142,145.896c-0.901-2.707-3.038-4.647-5.573-5.423l-5.762-79.028c2.063-1.414,3.809-3.351,5.006-5.746
	c3.758-7.521,0.709-16.667-6.815-20.426c-7.521-3.758-16.668-0.707-20.427,6.815c-0.013,0.025-0.021,0.051-0.033,0.076
	l-41.22-16.979c1.517-6.681-1.628-13.778-8.032-16.977c-7.521-3.759-16.667-0.709-20.427,6.815
	c-1.212,2.427-1.706,5.022-1.579,7.552l-53.559,16.319c-0.047,0.014-0.089,0.039-0.127,0.072c-1.368-3.2-3.827-5.954-7.184-7.631
	c-7.521-3.758-16.668-0.708-20.428,6.815c-0.381,0.763-0.674,1.545-0.917,2.333L78.828,24.391c0.314-1.441,0.265-2.981-0.237-4.483
	c-1.479-4.443-6.281-6.843-10.726-5.36c-4.444,1.482-6.845,6.286-5.361,10.729c0.005,0.015,0.012,0.028,0.017,0.043l-23.226,9.674
	c-2.029-3.242-6.073-4.808-9.861-3.544c-4.445,1.482-6.846,6.287-5.365,10.729c0.506,1.515,1.404,2.784,2.535,3.751l-14.53,27.259
	c-0.013,0.025-0.004,0.058-0.005,0.086c-1.803-0.726-3.861-0.845-5.849-0.183c-4.443,1.481-6.843,6.287-5.36,10.728
	c0.901,2.708,3.039,4.649,5.574,5.424l5.778,79.271c-2.09,1.417-3.861,3.366-5.07,5.786c-3.758,7.521-0.709,16.669,6.816,20.427
	c7.521,3.759,16.668,0.707,20.426-6.813c0.013-0.025,0.021-0.053,0.034-0.078l41.753,17.2c-0.058,0.273-0.119,0.546-0.161,0.82
	c-1.113,6.448,2.042,13.129,8.197,16.204c7.523,3.759,16.669,0.71,20.428-6.814c0.728-1.457,1.194-2.976,1.428-4.504
	c0.201-1.164,0.255-2.333,0.185-3.49l52.985-16.146c0.048-0.014,0.091-0.039,0.129-0.072c1.369,3.2,3.827,5.954,7.184,7.632
	c7.521,3.757,16.669,0.707,20.426-6.816c0.424-0.849,0.749-1.72,1.004-2.6l33.197,16.076c-0.313,1.441-0.265,2.981,0.237,4.482
	c1.48,4.444,6.281,6.844,10.727,5.362c4.443-1.482,6.845-6.287,5.36-10.729c-0.005-0.015-0.012-0.028-0.017-0.043l23.226-9.675
	c2.029,3.242,6.074,4.808,9.861,3.544c4.445-1.482,6.846-6.285,5.364-10.728c-0.506-1.515-1.403-2.784-2.534-3.752l14.53-27.259
	c0.013-0.024,0.004-0.058,0.006-0.087c1.803,0.727,3.861,0.846,5.849,0.183C298.225,155.143,300.624,150.338,299.142,145.896z
	 M275.99,63.766l-12.67,39.807l-17.598-26.54c2.908-2.117,4.251-5.945,3.053-9.54c-0.026-0.08-0.063-0.154-0.091-0.232l19.325-8.05
	c1.216,1.319,2.675,2.455,4.375,3.304C273.556,63.1,274.768,63.501,275.99,63.766z M183.479,173.692
	c-0.983-0.878-2.086-1.652-3.321-2.27c-0.313-0.156-0.633-0.284-0.951-0.417c0.13-0.182,0.225-0.392,0.271-0.622l15.088-74.475
	l15.755,11.424c-1.29,2.071-1.682,4.678-0.85,7.173c0.608,1.824,1.782,3.294,3.256,4.302L183.479,173.692z M215.829,35.661
	l18.913,28.521c-2.2,2.201-3.109,5.528-2.06,8.68c0.517,1.547,1.441,2.839,2.606,3.813c-0.148,0.154-0.288,0.338-0.404,0.555
	l-14.236,26.715c-1.795-0.715-3.841-0.828-5.816-0.169c-1.251,0.417-2.333,1.105-3.219,1.967l-16.602-12.038l11.537-56.945
	C209.724,37.383,212.968,36.973,215.829,35.661z M225.561,109.135c-0.622-1.863-1.834-3.361-3.354-4.37l14.235-26.714
	c0.082-0.154,0.135-0.309,0.181-0.462c2.005,1.11,4.445,1.417,6.79,0.634c0.175-0.058,0.34-0.13,0.508-0.198l18.603,28.053
	l-15.705,49.345l-24.235-36.549c-0.039-0.06-0.097-0.098-0.147-0.145C225.396,116.622,226.769,112.76,225.561,109.135z
	 M223.101,28.636c0.074-0.149,0.129-0.302,0.198-0.452l41.143,16.948c-1.132,4.419-0.191,9.055,2.398,12.659l-18.931,7.886
	c-2.03-3.243-6.074-4.808-9.863-3.544c-0.603,0.201-1.163,0.468-1.687,0.781l-18.727-28.242
	C219.895,33.239,221.816,31.206,223.101,28.636z M141.512,41.928c0.044,0.004,0.088,0.003,0.129-0.009l53.136-16.19
	c1.082,4.076,3.827,7.69,7.897,9.723c0.124,0.062,0.251,0.106,0.376,0.165c-0.028,0.077-0.059,0.153-0.075,0.236L191.737,91.33
	l-52.419-38.011c0.326-0.497,0.634-1.011,0.906-1.556C141.806,48.597,142.168,45.146,141.512,41.928z M130.351,59.703l14.913,44.541
	c-3.721,1.857-5.607,6.206-4.256,10.263c1.354,4.061,5.488,6.405,9.583,5.646l17.01,50.808c-2.092,0.854-3.995,2.171-5.551,3.897
	l-53.33-38.668l15.363-75.843c0.008-0.037,0.005-0.073,0.011-0.11l0.035-0.174c0.005-0.026,0.003-0.051,0.007-0.077
	C126.23,60.331,128.343,60.214,130.351,59.703z M61.955,167.584c0.602-0.201,1.163-0.467,1.685-0.781l19.011,28.67
	c-2.152,1.424-3.978,3.402-5.214,5.876c-0.068,0.136-0.117,0.275-0.181,0.412l-41.684-17.17c1.043-4.42,0.034-9.024-2.613-12.58
	l19.133-7.972C54.122,167.282,58.167,168.847,61.955,167.584z M116.402,56.246c1.001,0.904,2.129,1.7,3.395,2.332
	c0.282,0.141,0.57,0.253,0.856,0.375c-0.057,0.119-0.104,0.244-0.132,0.378l-15.087,74.476L89.68,122.384
	c1.29-2.07,1.682-4.679,0.849-7.173c-0.608-1.824-1.783-3.295-3.256-4.304L116.402,56.246z M74.44,120.581
	c0.622,1.863,1.833,3.36,3.354,4.37l-14.236,26.715c-0.082,0.154-0.135,0.309-0.181,0.462c-2.004-1.11-4.445-1.418-6.791-0.635
	c-0.174,0.059-0.34,0.13-0.508,0.198l-18.602-28.053l15.705-49.345l24.235,36.549c0.039,0.06,0.097,0.098,0.147,0.145
	C74.604,113.094,73.23,116.956,74.44,120.581z M67.316,156.855c-0.516-1.547-1.44-2.839-2.606-3.813
	c0.149-0.153,0.289-0.338,0.404-0.554l14.238-26.717c1.794,0.715,3.84,0.828,5.817,0.17c1.25-0.418,2.332-1.104,3.218-1.967
	l16.601,12.038l-11.567,57.1c-3.094-0.486-6.225,0.017-8.982,1.347l-19.18-28.924C67.458,163.334,68.368,160.006,67.316,156.855z
	 M73.231,30.638c2.337-0.78,4.101-2.481,5.039-4.562L111.63,42.23c-0.832,4.559,0.472,9.245,3.474,12.707l-29.378,55.13
	c-1.821-0.755-3.908-0.889-5.924-0.216c-0.185,0.062-0.361,0.138-0.539,0.21c-0.021-0.123-0.066-0.242-0.139-0.351L53.979,71.789
	l13.187-41.43C69.019,31.167,71.163,31.328,73.231,30.638z M40.159,36.808c-0.026-0.079-0.062-0.153-0.09-0.231l23.188-9.659
	c0.553,0.934,1.268,1.735,2.098,2.377L52.526,69.597L37.11,46.348C40.016,44.23,41.359,40.402,40.159,36.808z M13.629,74.017
	l14.432-27.084c1.995,1.087,4.415,1.382,6.741,0.606c0.185-0.062,0.36-0.138,0.538-0.21c0.021,0.047,0.027,0.098,0.056,0.143
	l16.333,24.631l-15.707,49.342L14.437,88.893c-0.216-0.327-0.476-0.587-0.739-0.768c3.043-2.086,4.474-6,3.251-9.674
	c-0.625-1.875-1.847-3.379-3.379-4.388C13.588,74.047,13.617,74.039,13.629,74.017z M13.905,167.528L8.223,89.592
	c1.104,0.089,2.245-0.037,3.362-0.41c0.242-0.081,0.476-0.176,0.706-0.276c0.045,0.349,0.188,0.741,0.437,1.116l22.497,33.927
	l-13.36,41.972C19.097,165.721,16.349,166.297,13.905,167.528z M23.922,166.227l12.757-40.083l17.598,26.54
	c-2.908,2.117-4.25,5.943-3.051,9.538c0.027,0.08,0.063,0.154,0.091,0.233l-19.553,8.144c-1.181-1.236-2.578-2.306-4.195-3.113
	C26.384,166.894,25.159,166.489,23.922,166.227z M158.442,188.072c-0.044-0.004-0.088-0.003-0.129,0.01l-52.593,16.025
	c-1.11-4.015-3.836-7.565-7.856-9.573c-0.291-0.146-0.589-0.263-0.885-0.388l11.293-55.752l52.511,38.078
	c-0.381,0.561-0.742,1.141-1.054,1.765C158.147,181.403,157.786,184.854,158.442,188.072z M169.543,170.314l-16.996-50.766
	c3.918-1.766,5.939-6.248,4.549-10.411c-1.389-4.172-5.708-6.542-9.906-5.591l-14.893-44.484c2.192-0.884,4.179-2.276,5.777-4.115
	l53.217,38.587l-15.42,76.119c-0.025,0.123-0.034,0.245-0.031,0.365C173.717,169.666,171.575,169.788,169.543,170.314z
	 M226.769,199.079c-2.338,0.78-4.101,2.48-5.039,4.561l-33.347-16.147c0.735-4.503-0.615-9.101-3.6-12.499l29.491-55.344
	c1.821,0.755,3.908,0.889,5.924,0.216c0.186-0.062,0.361-0.138,0.539-0.211c0.021,0.123,0.065,0.242,0.139,0.352l25.145,37.922
	l-13.187,41.43C230.98,198.55,228.837,198.389,226.769,199.079z M259.84,192.907c0.026,0.08,0.063,0.154,0.091,0.232l-23.188,9.658
	c-0.553-0.934-1.268-1.735-2.098-2.377l12.829-40.302l15.415,23.248C259.984,185.485,258.641,189.313,259.84,192.907z
	 M286.371,155.699l-14.432,27.084c-1.995-1.088-4.415-1.383-6.741-0.607c-0.185,0.062-0.36,0.138-0.537,0.21
	c-0.021-0.047-0.027-0.098-0.057-0.142l-16.333-24.631l15.707-49.342l21.586,32.552c0.217,0.327,0.476,0.587,0.738,0.768
	c-3.043,2.086-4.475,6-3.251,9.674c0.625,1.875,1.847,3.38,3.38,4.389C286.412,155.669,286.383,155.678,286.371,155.699z
	 M288.415,140.534c-0.242,0.081-0.476,0.176-0.705,0.275c-0.045-0.349-0.188-0.74-0.438-1.115l-22.497-33.927l13.271-41.692
	c2.807,0.21,5.595-0.375,8.066-1.636l5.665,77.686C290.674,140.035,289.533,140.161,288.415,140.534z"/>
<g>
</g>
<g>
</g>
<g>
</g>
<g>
</g>
<g>
</g>
<g>
</g>
</svg>
