<?xml version="1.0" encoding="utf-8"?>
<!-- Generator: Adobe Illustrator 16.0.0, SVG Export Plug-In . SVG Version: 6.00 Build 0)  -->
<!DOCTYPE svg PUBLIC "-//W3C//DTD SVG 1.1//EN" "http://www.w3.org/Graphics/SVG/1.1/DTD/svg11.dtd">
<svg version="1.1" id="Layer_1" xmlns="http://www.w3.org/2000/svg" xmlns:xlink="http://www.w3.org/1999/xlink" x="0px" y="0px"
	 width="300px" height="210px" viewBox="0 0 300 210" enable-background="new 0 0 300 210" xml:space="preserve">
<g>
	<path d="M297.049,36.634l-20.912,0.616l-1.462-12.624c0,0-7.54-0.608-22.302,3.055c-12.154,3.017-8.896,6.037-14.986,8.951
		c-6.346,3.034-81.947,3.772-124.163,3.947l18.538,53.161c22.572,0.53,53.056,1.061,74.45,0.713c2.54-0.041,5.281-0.211,8.035-0.404
		c0.134,0.099,0.251,0.192,0.394,0.294c11.853,8.517,1.678,25.173,1.678,25.173l8.647,6.042c6.581-18.005,4.135-27.463,1.104-32.161
		c5.643-0.04,9.722,0.716,9.624,3.745c-0.77,23.834,6.459,32.292,6.459,32.292s3.703,5.221,0.306,15.685
		c-3.845,11.841,0.902,50.248,22.759,45.44c11.533-2.537,17.752-6.104,21.375-16.455c6.458-18.453-4.92-23.681-5.229-28.602
		c-0.308-4.921,0.723-5.53,0.615-13.84c-0.153-11.686-6.8-13.032-7.018-18.51c-0.307-7.652,6.688-16.732,14.962-18.703
		C304.123,91.067,297.049,36.634,297.049,36.634z M202.683,53.848l2.573,4.202l-49.226-0.052l-1.739-4.099L202.683,53.848z
		 M138.958,65.741l59.88-0.052l2.575,4.202l-60.717-0.051L138.958,65.741z M157.298,82.373l-1.738-4.1l77.646-0.051l2.576,4.202
		L157.298,82.373z M248.373,39.312c-2.469-0.26,0.234-4.756,1.966-5.573c5.114-2.414,18.477-3.567,18.48-3.567l1.386,9.123
		C270.205,39.294,254.284,39.933,248.373,39.312z"/>
	<path d="M85.149,40.628l16.301,52.288c0,0,9.622,0.309,23.627,0.661l-17.195-52.979C94.196,40.644,85.149,40.628,85.149,40.628z"/>
	<path d="M80.377,43.766c-0.934-0.255-1.889-0.453-2.875-0.563V19.027h-4.12v24.176c-1.995,0.219-3.893,0.755-5.65,1.552
		l-8.235-14.427L55.92,32.37l8.271,14.489c-1.483,1.118-2.791,2.455-3.88,3.959L40.845,38.896l-2.152,3.514l19.58,11.989
		c-0.371,0.865-0.657,1.772-0.897,2.698L1.189,53.561v16.475l56.187-3.532c0.24,0.926,0.526,1.833,0.897,2.697L38.692,81.19
		l2.152,3.514L60.312,72.78c1.089,1.503,2.397,2.84,3.88,3.962L55.92,91.227l3.577,2.044l8.235-14.426
		c1.758,0.797,3.655,1.331,5.65,1.548v24.177h4.12V80.394c4.907-0.539,9.232-2.986,12.243-6.576l-4.419-14.174L80.377,43.766z"/>
</g>
<g>
</g>
<g>
</g>
<g>
</g>
<g>
</g>
<g>
</g>
<g>
</g>
</svg>
