<?xml version="1.0" encoding="utf-8"?>
<!-- Generator: Adobe Illustrator 16.0.0, SVG Export Plug-In . SVG Version: 6.00 Build 0)  -->
<!DOCTYPE svg PUBLIC "-//W3C//DTD SVG 1.1//EN" "http://www.w3.org/Graphics/SVG/1.1/DTD/svg11.dtd">
<svg version="1.1" id="Layer_1" xmlns="http://www.w3.org/2000/svg" xmlns:xlink="http://www.w3.org/1999/xlink" x="0px" y="0px"
	 width="1238px" height="289px" viewBox="0 0 1238 289" preserveAspectRatio="xMinYMin" enable-background="new 0 0 1238 289" xml:space="preserve">
<g>
	<g>
		<path fill="#4C4C4D" d="M496.117,63.93v154.268c0,7.125-5.788,12.913-12.912,12.913H350.753c-21.37,0-38.067-16.253-38.067-36.954
			V63.93h18.032c1.558,0,2.894,1.334,2.894,2.893v129.114c0,9.125,7.345,16.027,17.141,16.027h47.637
			c-2.671-2.448-4.452-6.233-4.452-10.684V63.93h18.032c1.559,0,2.895,1.334,2.895,2.893v140.912c0,2.227,1.781,4.229,4.229,4.229
			h51.867c2.226,0,4.23-2.003,4.23-4.229V66.822c0-1.559,1.334-2.893,2.893-2.893H496.117z"/>
		<path fill="#4C4C4D" d="M542.861,122.03v109.08h-16.917c-1.336,0-2.449-1.113-2.449-2.451V119.803h16.917
			C541.749,119.803,542.861,120.694,542.861,122.03z"/>
		<path fill="#4C4C4D" d="M683.993,63.93v16.249c0,1.56-1.336,2.896-2.894,2.896h-72.127c-9.349,0-16.917,7.569-16.917,16.917
			v42.741c2.226-2.893,6.456-4.897,11.13-4.897h75.689v16.251c0,1.559-1.338,2.895-2.895,2.895h-83.925v71.233
			c0,1.56-1.335,2.896-2.894,2.896h-18.031V101.772c0-20.926,16.919-37.843,37.842-37.843H683.993z"/>
		<path fill="#4C4C4D" d="M722.727,122.03v109.08h-16.919c-1.336,0-2.45-1.113-2.45-2.451V119.803h16.92
			C721.614,119.803,722.727,120.694,722.727,122.03z"/>
		<path fill="#4C4C4D" d="M845.382,152.305v78.806h-16.918c-1.337,0-2.448-1.113-2.448-2.451v-77.467
			c0-7.124-5.79-13.134-13.135-13.134h-40.294c-1.335,0-2.446,1.113-2.446,2.449v88.152c0,1.338-1.115,2.451-2.45,2.451h-16.917
			v-96.836c0-8.014,6.454-14.471,14.47-14.471h47.638C830.911,119.803,845.382,134.274,845.382,152.305z"/>
		<path fill="#4C4C4D" d="M903.032,119.803h25.825c7.124,0,12.688,3.34,15.358,7.124V66.6c0-1.336,1.114-2.449,2.45-2.449h16.917
			v159.834c0,4.007-3.115,7.125-7.122,7.125h-52.981c-18.032,0-32.499-14.472-32.499-32.502v-46.304
			C870.98,134.274,885.002,119.803,903.032,119.803z M890.345,199.497c0,7.347,5.789,13.135,13.135,13.135h38.289
			c1.334,0,2.447-0.889,2.447-2.226v-60.772c-0.442-6.011-5.117-10.685-10.683-11.353h-30.054c-7.346,0-13.135,5.787-13.135,13.133
			V199.497z"/>
		<path fill="#4C4C4D" d="M990.74,194.156V63.93h18.03c1.559,0,2.894,1.334,2.894,2.893v129.114c0,9.348,7.569,16.919,16.918,16.919
			h50.313c9.347,0,16.916-7.571,16.916-16.919V66.822c0-1.559,1.337-2.893,2.895-2.893h18.03v130.227
			c0,20.925-17.14,37.844-37.841,37.844h-50.313C1007.657,232,990.74,215.081,990.74,194.156z"/>
		<path fill="#4C4C4D" d="M1140.776,164.103v-14.915c0-18.03,12.467-29.384,30.496-29.384h60.998v15.806
			c0,1.335-1.115,2.449-2.451,2.449h-58.547c-7.345,0-11.13,3.562-11.13,10.908v6.455c0,1.114,0.892,2.005,2.004,2.448
			l68.787,16.251c3.563,0.668,6.01,3.784,6.01,7.346v19.814c0,19.367-13.801,29.83-31.833,29.83h-62.998v-15.807
			c0-1.337,1.112-2.448,2.449-2.448h60.549c7.347,0,13.803-4.229,13.803-11.575v-10.464c0-1.112-0.891-2.001-2.003-2.227
			l-69.9-17.142C1143.447,170.781,1140.776,167.665,1140.776,164.103z"/>
	</g>
	<path fill="#6985C3" d="M727.998,79.107c0-8.26-6.696-14.955-14.955-14.956c-8.26,0-14.956,6.694-14.956,14.955
		c0,8.261,6.696,14.957,14.953,14.958c8.261,0.001,14.957-6.694,14.958-14.953"/>
	<path fill="#6985C3" d="M548.797,79.107c0-8.26-6.696-14.955-14.954-14.956c-8.26,0-14.957,6.694-14.957,14.955
		c0,8.261,6.694,14.957,14.954,14.958c8.259,0.001,14.956-6.694,14.957-14.953"/>
</g>
<g>
	<path fill="#6985C3" d="M90.925,82.397c-0.765,0.524-1.257,1.361-1.343,2.284c-0.085,0.923,0.244,1.836,0.899,2.492l-0.002,0.002
		l17.547,17.543l0.004-0.005c16.95-10.9,38.706-10.898,55.653,0.005l17.543-17.543l0-0.002c0.656-0.655,0.985-1.569,0.9-2.492
		c-0.085-0.923-0.577-1.761-1.342-2.285l0.001,0.007c-27.078-18.555-62.774-18.558-89.855-0.009"/>
	<path fill="#6985C3" d="M47.324,39.16c-0.685,0.556-1.101,1.377-1.146,2.258c-0.045,0.881,0.285,1.74,0.909,2.364l0.001-0.001
		l17.499,17.503l0.013-0.009c41.414-34.035,101.116-34.029,142.524,0.013l-0.004-0.003l17.503-17.503l-0.002,0.002
		c0.624-0.624,0.954-1.482,0.909-2.364s-0.461-1.702-1.146-2.259l0.008,0.003C172.83-2.789,98.905-2.797,47.336,39.145"/>
	<path fill="#6985C3" d="M154.558,147.979c0-10.33-8.374-18.704-18.704-18.705c-10.33,0-18.705,8.373-18.706,18.703
		c-0.001,10.331,8.372,18.706,18.702,18.707c10.33,0.001,18.706-8.372,18.708-18.701"/>
	<path fill="#4C4C4D" d="M240.51,35.032l-93.023,93.023l0.002,0.003c4.904,2.192,8.828,6.116,11.019,11.021l0.001-0.002
		l90.909-90.908l0.001,0c1.191-1.19,1.221-3.11,0.069-4.338l0.005,0.006c-2.866-3.052-5.856-5.984-8.965-8.79"/>
	<g id="XMLID_4_">
		<g>
			<path fill="#4C4C4D" d="M237.441,72.233c42.615,51.457,36.847,119.845-9.117,168.333h0.006
				c-24.25,25.586-57.819,40.272-93.066,40.729c-35.247,0.451-69.186-13.367-94.083-38.321l-0.011-0.017
				c-26.108-26.174-40.35-61.904-39.398-98.861c0.957-36.952,13.4-69.114,40.823-93.914l10.03,10.036h0.005
				c0.599,0.599,0.929,1.413,0.913,2.249c-0.011,0.847-0.368,1.65-0.99,2.233c-23.37,21.852-33.355,49.412-34.098,81.397
				c-0.748,31.992,11.416,62.934,33.746,85.853c46.294,47.509,122.298,48.604,169.944,2.452l0.011-0.011
				c45.117-43.71,52.991-107.715,13.945-156.923l-0.011-0.022c-0.984-1.237-0.885-3.014,0.237-4.13l1.1-1.1L237.441,72.233z"/>
		</g>
		<g>
		</g>
	</g>
	<g id="XMLID_3_">
		<g>
			<path fill="#4C4C4D" d="M191.334,114.535c19.086,27.285,16.331,58.331-5.994,83.036h0.005
				c-12.834,14.198-30.936,22.501-50.072,22.958c-19.136,0.456-37.617-6.973-51.111-20.544l-0.005,0.006
				c-14.693-14.78-22.501-35.049-21.511-55.867c0.984-20.818,7.583-37.589,23.606-50.913v0.005l9.914,9.909v0.005
				c0.61,0.61,0.94,1.446,0.907,2.31c-0.027,0.857-0.407,1.666-1.056,2.238c-0.005,0.005-0.005,0.005-0.011,0.005
				c-11.954,10.426-16.045,22.622-16.782,38.47c-0.742,15.853,5.026,31.315,15.963,42.813v0.006
				c22.583,23.722,60.068,24.811,83.982,2.431h0.006c21.483-20.104,26.135-46.822,10.442-71.715l-0.005-0.005
				c-0.775-1.232-0.6-2.832,0.434-3.866l1.281-1.287L191.334,114.535z"/>
		</g>
		<g>
		</g>
	</g>
</g>
<g>
</g>
<g>
</g>
<g>
</g>
<g>
</g>
<g>
</g>
<g>
</g>
</svg>
