<?xml version="1.0" encoding="utf-8"?>
<!-- Generator: Adobe Illustrator 16.0.0, SVG Export Plug-In . SVG Version: 6.00 Build 0)  -->
<!DOCTYPE svg PUBLIC "-//W3C//DTD SVG 1.1//EN" "http://www.w3.org/Graphics/SVG/1.1/DTD/svg11.dtd">
<svg version="1.1" id="clock" xmlns="http://www.w3.org/2000/svg" xmlns:xlink="http://www.w3.org/1999/xlink" x="0px" y="0px"
	 width="300px" height="300px" viewBox="0 0 300 300" enable-background="new 0 0 300 300" xml:space="preserve">
<g>
	<g>
		<path d="M74.724,53.662c48.316-38.529,117.686-35.466,162.42,9.198c42.825,42.894,47.404,109.739,13.747,157.759l-13.084-13.068
			l-13.212,57.759l57.725-13.315l-13.765-13.747c43.103-57.816,38.469-140.224-13.912-192.747l0.002-0.001
			c-0.024-0.023-0.047-0.045-0.07-0.068c-0.025-0.025-0.048-0.049-0.07-0.074l-0.004,0.001
			c-54.915-54.769-142.503-58.763-200.493-9.15l27.484-7.613L74.724,53.662z"/>
		<path d="M225.274,246.34c-48.314,38.527-117.685,35.464-162.419-9.199C20.032,194.248,15.452,127.402,49.109,79.382l13.082,13.067
			L75.404,34.69L17.681,48.007l13.765,13.747c-43.103,57.817-38.471,140.225,13.911,192.747l-0.001,0.001
			c0.022,0.021,0.045,0.045,0.069,0.069c0.024,0.023,0.048,0.048,0.071,0.073l0.003-0.003
			c54.915,54.768,142.502,58.764,200.493,9.152l-27.483,7.612L225.274,246.34z"/>
	</g>
	<path d="M247.411,82.382l-10.951,0.209l-82.115,48.768c-1.194-0.237-2.428-0.368-3.691-0.368c-0.985,0-1.945,0.1-2.89,0.244
		l-44.598-45.422l0.443,10.946l28.819,48.364c-0.387,1.509-0.616,3.081-0.616,4.708c0,10.407,8.434,18.839,18.841,18.839
		c10.241,0,18.56-8.179,18.815-18.363L247.411,82.382z"/>
</g>
<g>
</g>
<g>
</g>
<g>
</g>
<g>
</g>
<g>
</g>
<g>
</g>
</svg>
